<svg id="Layer" xmlns="http://www.w3.org/2000/svg" viewBox="0 0 24 24">
  <circle cx="12" cy="12" r="11" stroke="#82b8ff" fill="#dbeafe"/>
  <g transform="translate(12, 12) scale(0.8) translate(-12, -12)">
    <path fill="#dc2626" stroke="#991b1b" stroke-width="0.5" d="M12.75,18.712V21a.75.75,0,0,1-1.5,0V18.712A7.76,7.76,0,0,1,4.25,11a.75.75,0,0,1,1.5,0,6.25,6.25,0,0,0,12.5,0,.75.75,0,0,1,1.5,0A7.76,7.76,0,0,1,12.75,18.712ZM12,2.5A4.505,4.505,0,0,0,7.5,7v4a4.5,4.5,0,0,0,9,0V7A4.505,4.505,0,0,0,12,2.5Z"/>
  </g>
</svg>
